<svg width="80" height="91" xmlns="http://www.w3.org/2000/svg"><g fill="none" fill-rule="evenodd"><circle fill="#FAEDFC" cx="40" cy="40" r="40"/><path d="M53.059 43.08l-.428-.013c-8.61-.211-15.539-7.121-15.75-15.707l-.027-.413c0-1.014.094-2 .268-2.947-8.172 1.574-13.816 9.07-13.053 17.334C24.832 49.6 31.754 55.941 40.076 56c7.81.018 14.515-5.54 15.924-13.2-.936.173-1.939.28-2.941.28zM40.535 52a12.556 12.556 0 01-9.364-4.212A12.544 12.544 0 0128.084 38 15.689 15.689 0 0042 51.91c-.48.051-.96.09-1.465.09z" fill="#7B1FA2"/><ellipse fill="#FAEDFC" cx="39.75" cy="89.5" rx="21.75" ry="1.5"/></g></svg>