<svg width="80" height="92" xmlns="http://www.w3.org/2000/svg"><g fill="none" fill-rule="evenodd"><ellipse fill="#F2F5F7" cx="40" cy="40.103" rx="40" ry="40.103"/><path d="M40.16 31.353c.704-2.741 1.44-7.291 6.208-7.291.928.029 1.792.35 2.496.875 1.28.933 1.856 1.954 1.664 3.091-.416 2.421-4.48 5.104-7.232 6.242H54.24c.96 0 1.76.729 1.76 1.633v4.2c0 .875-.8 1.604-1.76 1.604H52.8V54.54c0 .904-.672 1.604-1.664 1.604H28.96c-.96 0-1.743-.7-1.76-1.575V41.707h-1.44c-.972 0-1.76-.718-1.76-1.604v-4.2c0-.875.768-1.633 1.76-1.633h10.944c-2.784-1.167-6.816-3.792-7.264-6.242-.16-1.137.384-2.158 1.696-3.091a4.488 4.488 0 012.496-.875c4.8 0 5.504 4.55 6.208 7.291h.32zM32.306 29c.214 1.29 2.747 2.768 4.731 3.617-.55-2.328-1.648-5.347-3.052-5.347-.36.025-.702.168-.977.409-.549.44-.763.88-.702 1.32zm14.656-1.321a1.653 1.653 0 00-.977-.41c-1.374 0-2.503 3.02-3.022 5.348 1.984-.85 4.518-2.328 4.732-3.617.06-.44-.184-.88-.733-1.321z" fill="#4F6772"/><ellipse fill="#F2F5F7" cx="39.75" cy="89.73" rx="21.75" ry="1.504"/></g></svg>