<svg width="80" height="91" xmlns="http://www.w3.org/2000/svg"><g fill="none" fill-rule="evenodd"><circle fill="#FAEDFC" cx="40" cy="40" r="40"/><path d="M55.056 39.328l-14.4-14.4A3.18 3.18 0 0038.4 24H27.2a3.21 3.21 0 00-3.2 3.2v11.2c0 .88.352 1.68.944 2.272l14.4 14.4A3.18 3.18 0 0041.6 56c.88 0 1.68-.352 2.256-.944l11.2-11.2A3.128 3.128 0 0056 41.6c0-.88-.368-1.696-.944-2.272zM29.5 32a2.497 2.497 0 01-2.5-2.5c0-1.383 1.117-2.5 2.5-2.5s2.5 1.117 2.5 2.5-1.117 2.5-2.5 2.5z" fill="#7B1FA2"/><ellipse fill="#FAEDFC" cx="39.75" cy="89.5" rx="21.75" ry="1.5"/></g></svg>